<svg version="1.1" id="Layer_1" xmlns="http://www.w3.org/2000/svg" xmlns:xlink="http://www.w3.org/1999/xlink" x="0px" y="0px"
	 width="100%" viewBox="0 0 1120 890" enable-background="new 0 0 1120 890" xml:space="preserve">
<path fill="#111111" opacity="1.000000" stroke="none" 
	d="
M804.000000,891.000000 
	C536.033264,891.000000 268.566498,891.000000 1.049866,891.000000 
	C1.049866,594.403442 1.049866,297.806885 1.049866,1.105168 
	C374.216797,1.105168 747.433655,1.105168 1120.825195,1.105168 
	C1120.825195,297.666595 1120.825195,594.333313 1120.825195,891.000000 
	C1015.473450,891.000000 909.986755,891.000000 804.000000,891.000000 
M719.907043,613.245544 
	C720.173157,613.044678 720.372559,612.791260 720.924438,612.235535 
	C721.189148,612.037048 721.396851,611.790527 721.972046,611.203186 
	C722.174011,610.932861 722.375977,610.662537 723.216797,610.085022 
	C725.408936,608.839539 727.601074,607.594055 729.793274,606.348572 
	C729.550720,606.002808 729.308167,605.657104 729.065674,605.311340 
	C726.703918,606.868469 724.342102,608.425598 721.468628,610.081665 
	C721.290039,610.366943 721.111450,610.652161 720.427917,611.046509 
	C720.247925,611.328369 720.067932,611.610168 719.391479,612.014343 
	C719.209229,612.291931 719.026978,612.569458 718.354858,612.975037 
	C718.160828,613.240662 717.966797,613.506287 717.149963,614.004578 
	C715.063171,615.968750 712.976379,617.932922 710.313782,620.101074 
	C710.313171,620.380920 710.312500,620.660706 710.311890,620.940552 
	C710.700134,620.791504 711.088379,620.642395 712.079346,620.198547 
	C714.218506,618.291809 716.357666,616.385071 718.916992,614.247192 
	C719.179688,614.047791 719.367432,613.793152 719.907043,613.245544 
M437.912170,663.062500 
	C437.504425,663.189514 437.096710,663.316589 436.688995,663.443604 
	C437.035217,663.721130 437.381439,663.998718 438.158356,664.816956 
	C440.419220,665.931335 442.680084,667.045654 444.947174,668.899536 
	C445.408569,669.586060 445.869995,670.272644 446.331390,670.959167 
	C446.899536,670.573853 447.467682,670.188477 448.813843,669.969910 
	C449.527863,670.024658 450.241852,670.079407 450.955872,670.134155 
	C451.028931,669.891724 451.101990,669.649231 451.175049,669.406738 
	C446.932098,667.447937 442.689117,665.489197 437.912170,663.062500 
M552.163025,697.991638 
	C545.298767,697.991638 538.434448,697.991638 531.570190,697.991638 
	C531.561157,698.529541 531.552063,699.067505 531.542969,699.605408 
	C538.752563,699.605408 545.962097,699.605408 553.991882,699.674683 
	C562.152222,699.260376 570.312622,698.846069 578.472961,698.431763 
	C578.454956,698.352112 578.436890,698.272461 578.418884,698.192810 
	C569.977173,698.192810 561.535400,698.192810 552.163025,697.991638 
M375.942444,631.362427 
	C375.539886,631.042480 375.137360,630.722473 374.301880,629.889587 
	C352.128815,609.658447 333.801971,586.236816 317.745605,560.904785 
	C323.032532,570.501953 328.693939,579.782654 335.066772,588.546021 
	C346.415619,604.151794 358.796417,618.895081 374.050476,631.633972 
	C374.453125,631.952637 374.855804,632.271362 375.688721,633.106689 
	C381.990662,638.215759 388.292603,643.324829 394.594543,648.433899 
	C394.892578,648.050293 395.190613,647.666748 395.488647,647.283203 
	C389.040985,642.135071 382.593353,636.986877 375.942444,631.362427 
M297.789642,348.722321 
	C298.055481,348.974304 298.321320,349.226257 298.475189,350.232391 
	C290.589874,377.095276 286.187134,404.377228 288.454620,432.467041 
	C291.057190,413.258026 291.384094,393.711975 297.453552,375.033325 
	C296.355530,384.014954 295.257507,392.996613 293.947449,402.665253 
	C293.696381,407.015137 293.445282,411.365021 293.194214,415.714905 
	C293.746887,415.729370 294.299530,415.743866 294.852203,415.758331 
	C295.182800,411.161163 295.513397,406.563995 295.997711,401.153839 
	C296.999756,394.241730 297.746674,387.281342 299.044586,380.425232 
	C308.678223,329.536987 330.485504,284.930054 366.883667,247.599838 
	C396.724670,216.994690 431.486542,194.542023 472.193695,181.326965 
	C506.726105,170.116455 542.059814,165.742737 578.065613,170.574921 
	C606.338135,174.369278 633.727539,181.988312 659.303223,195.065384 
	C691.458252,211.506561 719.935059,232.794128 742.475342,261.190826 
	C764.445251,288.868866 781.647400,319.180511 790.656616,353.755524 
	C795.322083,371.660461 799.125610,389.708221 799.492310,408.197906 
	C799.755798,421.481628 798.712708,434.804871 797.925171,448.091125 
	C797.387329,457.165710 796.821533,466.295807 795.335876,475.246338 
	C790.836487,502.354492 781.337280,527.903687 767.733093,551.594910 
	C758.751221,567.236633 747.502014,581.585266 737.086121,596.384827 
	C735.497070,598.642639 732.922241,600.206604 730.803345,602.091492 
	C738.877197,602.718506 740.888672,594.249512 747.540283,592.536011 
	C745.556641,596.323975 743.188538,599.758362 740.513977,602.934753 
	C722.081421,624.826599 699.793762,642.093323 675.514038,656.967529 
	C673.848816,657.987671 672.448486,659.440125 670.924866,660.691345 
	C670.923889,660.692139 670.919861,660.689331 670.917236,660.688171 
	C671.004639,660.794800 671.133423,660.889648 671.167969,661.011292 
	C671.204163,661.138916 671.202393,661.374695 671.127502,661.422302 
	C668.443359,663.130371 665.748596,664.821899 663.055359,666.515686 
	C665.264893,666.703674 667.069336,666.085327 668.765991,665.248352 
	C708.629456,645.585144 740.516907,616.754822 766.008179,580.579773 
	C782.264282,557.510498 792.129944,531.462646 801.844116,504.884949 
	C802.217224,503.254517 802.590393,501.624115 802.987488,499.337830 
	C803.105713,498.917969 803.223999,498.498077 803.972412,497.941833 
	C804.316101,496.294800 804.659851,494.647736 804.999695,492.344086 
	C805.108521,491.921051 805.217285,491.498016 805.863586,490.987640 
	C805.911072,490.325500 805.958557,489.663361 806.019592,488.259521 
	C806.197998,487.542511 806.376465,486.825531 807.077148,486.043823 
	C807.110840,485.372284 807.144531,484.700775 807.118530,483.371735 
	C807.206543,482.942535 807.294556,482.513367 807.913208,482.004456 
	C807.969482,481.341644 808.025757,480.678833 808.062866,479.263702 
	C808.275024,478.548981 808.487183,477.834290 809.168823,476.968079 
	C809.187866,476.327545 809.206909,475.687012 809.140137,474.240997 
	C809.392578,473.199921 809.645020,472.158844 810.412598,470.754547 
	C810.469666,469.982300 810.526733,469.210022 810.428894,468.106964 
	C810.428894,468.106964 810.582214,467.775360 811.481323,467.792694 
	C812.074829,467.874420 812.668396,467.956146 813.235291,468.871735 
	C804.911011,526.328674 780.057434,576.002563 740.195862,617.645813 
	C699.080139,660.599304 648.094177,685.811279 589.467712,695.864258 
	C592.991638,695.864258 596.515564,695.864258 600.039490,695.864258 
	C600.078918,696.324158 600.118286,696.784058 600.157715,697.243958 
	C585.533325,699.105103 570.908936,700.966248 556.284546,702.827454 
	C556.312622,703.280884 556.340698,703.734314 556.368774,704.187744 
	C559.271667,704.187744 562.195374,704.413452 565.073792,704.147827 
	C576.338684,703.108154 587.751526,702.759705 598.819153,700.639587 
	C674.381531,686.164490 734.359863,647.392639 777.512390,583.587952 
	C795.971436,556.294739 810.533936,527.022705 815.382812,493.531006 
	C816.211670,491.002258 817.040527,488.473511 818.006775,485.306519 
	C818.017517,484.872742 818.028259,484.438995 818.555298,483.430267 
	C819.341248,478.269897 820.127258,473.109558 821.026123,467.142120 
	C821.733154,457.848083 822.782654,448.565247 823.087280,439.258057 
	C824.313843,401.782745 819.378662,365.097565 806.168518,329.964630 
	C785.213196,274.233307 748.777832,230.420776 699.042969,198.287338 
	C638.959961,159.468018 573.138428,145.755249 502.478333,158.642242 
	C454.606476,167.373138 412.507965,188.450577 376.195251,220.885864 
	C339.019623,254.091934 312.959778,294.641357 296.999878,341.754120 
	C296.379974,343.584045 297.014984,345.839081 297.789642,348.722321 
M468.500061,397.148010 
	C453.374634,397.148010 438.249176,397.148010 422.837891,397.148010 
	C419.668304,416.960663 416.553650,436.429901 413.438995,455.899139 
	C433.948608,400.900024 465.855011,400.756073 493.467163,402.227081 
	C493.467163,403.838074 493.467133,405.472809 493.467133,407.107544 
	C493.467133,463.924774 493.470520,520.742004 493.464081,577.559265 
	C493.462921,587.732605 489.802795,592.531372 479.912933,594.871704 
	C475.375183,595.945557 470.722290,596.532654 466.121613,597.340515 
	C466.154938,597.562561 466.188232,597.784668 466.221558,598.006714 
	C494.202759,598.006714 522.183960,598.006714 550.165100,598.006714 
	C546.136536,596.576599 542.000122,596.206848 538.010498,595.234497 
	C526.110413,592.334045 522.888916,587.316956 522.925110,576.617920 
	C523.116882,519.967957 523.015198,463.316986 523.015198,406.666382 
	C523.015198,405.038055 523.015198,403.409698 523.015198,402.136963 
	C533.471985,402.136963 543.516235,401.338593 553.382996,402.321716 
	C568.660828,403.844055 580.084778,411.771729 584.231873,427.062042 
	C586.317078,434.750275 586.058167,443.078918 586.797424,451.123627 
	C586.947266,452.753845 586.819092,454.409607 586.819092,456.053589 
	C587.128906,456.072845 587.438721,456.092102 587.748535,456.111359 
	C593.809875,436.569611 599.871277,417.027893 606.037537,397.148010 
	C560.127747,397.148010 514.813904,397.148010 468.500061,397.148010 
M690.410156,592.156494 
	C679.691101,592.156494 668.971985,592.156494 658.267578,592.156494 
	C658.267578,550.452698 658.267578,508.377228 658.267578,465.900208 
	C669.446106,465.900208 680.373108,465.900208 691.445496,465.900208 
	C691.915649,463.490662 692.315979,461.439270 692.812988,458.892212 
	C681.090332,458.892212 669.672607,458.892212 658.999573,458.892212 
	C658.999573,442.565979 658.999573,426.703644 658.999573,410.699738 
	C642.108582,418.543274 624.713440,426.620941 607.318298,434.698608 
	C607.489929,435.124481 607.661621,435.550323 607.833252,435.976196 
	C611.145020,435.196442 614.464478,434.447723 617.767151,433.631348 
	C629.343628,430.769684 631.477600,432.395294 631.478027,444.150177 
	C631.479980,494.619781 631.478882,545.089355 631.478882,596.009155 
	C635.576660,597.458130 640.165649,599.389954 644.929382,600.673157 
	C649.190918,601.821167 653.917480,603.579529 657.962036,602.748291 
	C669.092102,600.460876 679.974426,596.965149 690.931946,593.866638 
	C691.152710,593.804260 691.094604,592.755737 690.410156,592.156494 
M545.811707,256.707825 
	C535.622925,248.030548 522.140991,251.332214 517.625061,263.855103 
	C516.638000,266.592285 515.269531,267.178802 512.723938,267.527832 
	C504.532318,268.650970 497.964600,274.387238 497.617004,282.235596 
	C497.390930,287.340393 499.622620,292.554047 500.968018,298.700226 
	C491.954224,309.335663 498.915802,327.069580 516.835022,327.527161 
	C518.437378,333.923187 521.877563,338.562469 526.525208,340.594971 
	C538.872620,345.994781 550.713074,338.401398 550.952393,324.479523 
	C551.258728,306.663055 551.360474,288.828217 550.834961,271.022400 
	C550.698059,266.383240 547.903503,261.822510 545.811707,256.707825 
M555.110168,318.451477 
	C555.385132,322.092804 555.269714,325.815460 556.008606,329.360077 
	C558.166626,339.712463 569.103455,345.152954 578.779358,340.942719 
	C584.852905,338.299896 588.252258,333.496033 589.515076,327.244995 
	C605.867310,327.344055 614.876587,310.741394 604.346436,297.370850 
	C604.463562,297.061615 604.503052,296.682709 604.708984,296.453094 
	C614.347839,285.706909 606.813660,267.793518 592.325745,267.219391 
	C591.104187,267.170990 589.385559,265.382965 588.876099,264.033752 
	C586.174133,256.877899 579.511536,251.761765 572.432434,251.816635 
	C562.161011,251.896240 555.207703,259.677887 555.133789,271.470520 
	C555.037781,286.801575 555.110229,302.133667 555.110168,318.451477 
M422.178345,657.226868 
	C423.036407,657.489380 424.073364,657.528137 424.724945,658.049072 
	C431.368011,663.359314 431.350433,663.381287 436.341553,662.379089 
	C429.856293,658.704224 423.632355,655.177368 417.408417,651.650574 
	C417.273499,651.911560 417.138580,652.172607 417.003632,652.433655 
	C418.605316,653.840576 420.207031,655.247437 422.178345,657.226868 
M557.485291,695.405029 
	C559.837708,695.280945 562.190125,695.156921 564.542480,695.032837 
	C564.518005,694.749329 564.493469,694.465759 564.468994,694.182190 
	C555.587769,694.182190 546.706543,694.182190 537.825317,694.182190 
	C537.820435,694.573975 537.815491,694.965820 537.810608,695.357605 
	C544.072205,695.357605 550.333862,695.357605 557.485291,695.405029 
M281.961426,425.508209 
	C281.961426,430.915649 281.961426,436.323090 281.961426,441.730530 
	C282.224701,441.727203 282.487946,441.723907 282.751221,441.720581 
	C282.751221,431.873505 282.751221,422.026459 282.751221,412.179382 
	C282.487274,412.173889 282.223328,412.168427 281.959381,412.162964 
	C281.959381,416.280457 281.959381,420.397980 281.961426,425.508209 
M292.971130,421.510590 
	C292.971130,425.735687 292.971130,429.960815 292.971130,434.185913 
	C293.279205,434.188293 293.587280,434.190674 293.895355,434.193024 
	C294.188263,428.610138 294.481171,423.027252 294.774109,417.444336 
	C294.303131,417.409088 293.832153,417.373840 293.361206,417.338593 
	C293.233795,418.389893 293.106384,419.441162 292.971130,421.510590 
M403.118774,652.495422 
	C400.800354,650.914917 398.481964,649.334412 396.163544,647.753906 
	C395.922974,648.144104 395.682373,648.534363 395.441772,648.924622 
	C399.147156,651.429077 402.852539,653.933472 406.557892,656.437927 
	C406.785706,656.095642 407.013489,655.753296 407.241272,655.411011 
	C406.077820,654.564941 404.914368,653.718811 403.118774,652.495422 
M529.192322,698.055664 
	C528.909058,698.173523 528.625854,698.291382 528.342590,698.409180 
	C528.686768,698.343384 529.031006,698.277649 529.192322,698.055664 
M437.395355,666.445923 
	C437.395355,666.445923 437.526642,666.347778 437.395355,666.445923 
M443.700745,669.449646 
	C443.700745,669.449646 443.424072,669.287842 443.424072,669.287842 
	C443.424072,669.287842 443.466888,669.643005 443.700745,669.449646 
M662.493958,668.525452 
	C662.493958,668.525452 662.501831,668.489197 662.493958,668.525452 
M441.334076,668.417847 
	C441.334076,668.417847 441.577454,668.543274 441.577454,668.543274 
	C441.577454,668.543274 441.525452,668.241211 441.334076,668.417847 
M439.641296,667.473389 
	C439.641296,667.473389 439.450439,667.351685 439.450439,667.351685 
	C439.450439,667.351685 439.470459,667.599304 439.641296,667.473389 
M435.717651,665.444153 
	C435.717651,665.444153 435.415344,665.272583 435.415344,665.272583 
	C435.415344,665.272583 435.466370,665.656372 435.717651,665.444153 
z"/>
<path fill="#F8F8F8" opacity="1.000000" stroke="none" 
	d="
M807.382568,482.084167 
	C807.294556,482.513367 807.206543,482.942535 806.912476,483.892487 
	C806.655884,484.978333 806.605408,485.543427 806.554871,486.108521 
	C806.376465,486.825531 806.197998,487.542511 805.733887,488.767273 
	C805.407532,489.875000 805.366821,490.474976 805.326111,491.074982 
	C805.217285,491.498016 805.108521,491.921051 804.699280,492.845276 
	C804.046692,494.923706 803.694458,496.500977 803.342224,498.078217 
	C803.223999,498.498077 803.105713,498.917969 802.713013,499.886536 
	C802.036133,501.975922 801.633606,503.516632 801.231140,505.057312 
	C792.129944,531.462646 782.264282,557.510498 766.008179,580.579773 
	C740.516907,616.754822 708.629456,645.585144 668.765991,665.248352 
	C667.069336,666.085327 665.264893,666.703674 663.055359,666.515686 
	C665.748596,664.821899 668.443359,663.130371 671.127502,661.422302 
	C671.202393,661.374695 671.204163,661.138916 671.167969,661.011292 
	C671.133423,660.889648 671.004639,660.794800 670.917236,660.688171 
	C670.919861,660.689331 670.923889,660.692139 670.924866,660.691345 
	C672.448486,659.440125 673.848816,657.987671 675.514038,656.967529 
	C699.793762,642.093323 722.081421,624.826599 740.513977,602.934753 
	C743.188538,599.758362 745.556641,596.323975 747.540283,592.536011 
	C740.888672,594.249512 738.877197,602.718506 730.803345,602.091492 
	C732.922241,600.206604 735.497070,598.642639 737.086121,596.384827 
	C747.502014,581.585266 758.751221,567.236633 767.733093,551.594910 
	C781.337280,527.903687 790.836487,502.354492 795.335876,475.246338 
	C796.821533,466.295807 797.387329,457.165710 797.925171,448.091125 
	C798.712708,434.804871 799.755798,421.481628 799.492310,408.197906 
	C799.125610,389.708221 795.322083,371.660461 790.656616,353.755524 
	C781.647400,319.180511 764.445251,288.868866 742.475342,261.190826 
	C719.935059,232.794128 691.458252,211.506561 659.303223,195.065384 
	C633.727539,181.988312 606.338135,174.369278 578.065613,170.574921 
	C542.059814,165.742737 506.726105,170.116455 472.193695,181.326965 
	C431.486542,194.542023 396.724670,216.994690 366.883667,247.599838 
	C330.485504,284.930054 308.678223,329.536987 299.044586,380.425232 
	C297.746674,387.281342 296.999756,394.241730 295.499756,401.565643 
	C294.721008,401.977722 294.440247,401.977966 294.159485,401.978241 
	C295.257507,392.996613 296.355530,384.014954 297.453552,375.033325 
	C291.384094,393.711975 291.057190,413.258026 288.454620,432.467041 
	C286.187134,404.377228 290.589874,377.095276 298.702881,349.535583 
	C298.997559,347.969666 299.064545,347.100586 299.202332,345.312317 
	C298.098816,346.646454 297.582031,347.271240 297.065247,347.896027 
	C297.014984,345.839081 296.379974,343.584045 296.999878,341.754120 
	C312.959778,294.641357 339.019623,254.091934 376.195251,220.885864 
	C412.507965,188.450577 454.606476,167.373138 502.478333,158.642242 
	C573.138428,145.755249 638.959961,159.468018 699.042969,198.287338 
	C748.777832,230.420776 785.213196,274.233307 806.168518,329.964630 
	C819.378662,365.097565 824.313843,401.782745 823.087280,439.258057 
	C822.782654,448.565247 821.733154,457.848083 820.712524,467.484131 
	C819.968628,467.808472 819.175293,467.712524 819.159790,467.784332 
	C818.222351,472.130524 817.225464,476.471985 816.566467,480.863770 
	C816.423584,481.815826 817.515686,482.953217 818.038940,484.005219 
	C818.028259,484.438995 818.017517,484.872742 817.639465,485.630432 
	C813.886475,487.732269 814.124512,490.630646 814.880615,493.689178 
	C810.533936,527.022705 795.971436,556.294739 777.512390,583.587952 
	C734.359863,647.392639 674.381531,686.164490 598.819153,700.639587 
	C587.751526,702.759705 576.338684,703.108154 565.073792,704.147827 
	C562.195374,704.413452 559.271667,704.187744 556.368774,704.187744 
	C556.340698,703.734314 556.312622,703.280884 556.284546,702.827454 
	C570.908936,700.966248 585.533325,699.105103 600.157715,697.243958 
	C600.118286,696.784058 600.078918,696.324158 600.039490,695.864258 
	C596.515564,695.864258 592.991638,695.864258 589.467712,695.864258 
	C648.094177,685.811279 699.080139,660.599304 740.195862,617.645813 
	C780.057434,576.002563 804.911011,526.328674 813.489929,468.146057 
	C814.620239,458.281250 815.495850,449.142090 816.562500,439.661163 
	C816.804871,436.863190 816.856201,434.406952 816.961182,431.487946 
	C816.951416,422.369873 816.888062,413.714630 816.917236,404.629211 
	C816.299255,397.811066 815.588684,391.423065 814.888550,384.631683 
	C813.894714,378.980469 812.890503,373.732635 811.886292,368.484772 
	C811.431519,368.560242 810.976746,368.635712 810.522034,368.711182 
	C811.403992,374.155518 812.285950,379.599854 813.154785,385.459137 
	C813.131042,387.257294 813.120422,388.640533 812.811584,390.042664 
	C812.312500,390.706329 812.111633,391.351166 811.824829,392.396851 
	C811.676453,393.885071 811.613953,394.972443 811.395935,396.314209 
	C811.532349,397.839264 809.555115,400.244415 812.882935,400.360535 
	C813.705139,406.017517 814.584656,411.282593 815.397949,416.924469 
	C815.318787,420.234283 815.305725,423.167267 814.915771,426.191284 
	C814.224854,430.911530 813.910828,435.540802 813.470215,440.598694 
	C812.546753,449.011230 811.749878,456.995178 810.875000,465.254364 
	C810.803772,465.720276 810.810486,465.910889 810.617188,466.342285 
	C810.472168,466.980530 810.527161,467.377930 810.582214,467.775360 
	C810.582214,467.775360 810.428894,468.106964 810.250793,468.445374 
	C810.014282,469.561768 809.955872,470.339783 809.897461,471.117767 
	C809.645020,472.158844 809.392578,473.199921 808.902161,474.779419 
	C808.675964,475.918427 808.687683,476.519012 808.699341,477.119598 
	C808.487183,477.834290 808.275024,478.548981 807.796753,479.780273 
	C807.481262,480.892639 807.431885,481.488403 807.382568,482.084167 
M649.155701,177.869476 
	C649.731506,177.824554 650.307312,177.779633 650.883118,177.734711 
	C650.313904,177.423599 649.744629,177.112488 648.755249,176.244690 
	C648.188049,176.251343 647.620850,176.257980 647.053650,176.264633 
	C647.588257,176.631302 648.122803,176.997955 649.155701,177.869476 
M302.877411,353.736511 
	C302.939728,352.810425 303.002045,351.884308 303.064362,350.958221 
	C302.789551,350.922211 302.514740,350.886200 302.239929,350.850189 
	C301.976746,351.746246 301.713531,352.642334 301.083191,354.256104 
	C300.989288,355.231659 300.895416,356.207245 300.801544,357.182800 
	C301.035370,357.229858 301.269196,357.276947 301.503052,357.324005 
	C301.831421,356.356445 302.159821,355.388885 302.877411,353.736511 
M298.943237,369.830170 
	C299.139130,368.491577 299.335022,367.153015 299.530914,365.814423 
	C299.155029,365.733551 298.779144,365.652679 298.403259,365.571808 
	C298.048737,366.884552 297.694244,368.197266 297.042389,370.310120 
	C296.849762,371.617462 296.657104,372.924774 296.464478,374.232117 
	C296.850555,374.325317 297.236603,374.418518 297.622681,374.511749 
	C297.956573,373.223663 298.290466,371.935608 298.943237,369.830170 
M760.037048,599.572021 
	C759.278809,600.640015 758.520508,601.708008 757.189636,603.096130 
	C755.698364,604.970825 754.207031,606.845520 752.118164,609.065247 
	C752.099609,609.497375 752.080994,609.929565 752.062439,610.361694 
	C752.476013,610.254395 752.889648,610.147156 753.918579,609.648254 
	C755.562073,607.622559 757.205505,605.596863 759.279602,603.170654 
	C759.942017,602.201355 760.604431,601.231995 761.863831,599.870544 
	C761.828552,599.436951 761.793274,599.003357 761.757996,598.569763 
	C761.356445,598.766541 760.954956,598.963318 760.037048,599.572021 
M783.046021,300.038757 
	C782.651245,300.079071 782.256409,300.119415 781.861633,300.159760 
	C782.040344,300.605133 782.219055,301.050537 782.707703,302.140503 
	C783.890015,304.512604 785.072327,306.884705 786.254639,309.256805 
	C786.684692,309.035309 787.114746,308.813843 787.544739,308.592377 
	C786.112061,305.979309 784.679382,303.366241 783.046021,300.038757 
M706.900208,652.053894 
	C715.017090,646.437744 722.776978,640.410278 729.995544,633.759094 
	C729.667786,633.375732 729.340027,632.992371 729.012268,632.609009 
	C721.082581,638.861328 713.152954,645.113647 704.645935,651.751465 
	C703.576050,652.653748 702.506165,653.556030 701.436279,654.458313 
	C701.712463,654.768799 701.988647,655.079285 702.264832,655.389832 
	C703.591370,654.343018 704.917908,653.296265 706.900208,652.053894 
M750.200439,611.134216 
	C743.228149,618.315308 736.255920,625.496399 729.283691,632.677490 
	C729.721252,633.097717 730.158875,633.517944 730.596436,633.938232 
	C737.489685,626.716003 744.382935,619.493835 751.833069,611.965881 
	C751.513062,611.568115 751.193054,611.170288 750.200439,611.134216 
M776.862122,291.550446 
	C777.630859,292.865570 778.399597,294.180664 779.168396,295.495789 
	C779.552429,295.263763 779.936462,295.031708 780.320496,294.799683 
	C779.122742,292.766541 777.924988,290.733368 776.727234,288.700226 
	C776.421326,288.865448 776.115417,289.030640 775.809448,289.195862 
	C776.020691,289.750854 776.231934,290.305878 776.862122,291.550446 
M789.962585,317.564117 
	C790.487732,318.382568 791.012878,319.200989 791.538025,320.019440 
	C791.807678,319.868622 792.077271,319.717804 792.346863,319.567017 
	C791.493774,317.669067 790.640686,315.771149 789.787537,313.873199 
	C789.482544,313.995850 789.177490,314.118500 788.872437,314.241180 
	C789.156860,315.099579 789.441284,315.958008 789.962585,317.564117 
M792.750549,323.759796 
	C792.983337,324.150391 793.216125,324.540985 793.448914,324.931580 
	C793.716553,324.819611 793.984192,324.707611 794.251770,324.595612 
	C793.641541,323.392395 793.031250,322.189178 792.420959,320.985931 
	C792.322693,321.096802 792.224426,321.207672 791.929871,321.540039 
	C792.042419,321.950073 792.198303,322.517853 792.750549,323.759796 
M774.928040,287.962769 
	C775.082825,288.020203 775.233765,288.101624 775.393616,288.127441 
	C775.517700,288.147461 775.652954,288.098145 775.783264,288.079681 
	C775.219238,286.992157 774.655212,285.904633 774.091187,284.817108 
	C773.790161,285.024445 773.489075,285.231750 773.188049,285.439087 
	C773.620789,286.074127 774.053589,286.709167 774.928040,287.962769 
M645.341125,176.083862 
	C645.473328,175.993912 645.621033,175.919495 645.732605,175.808731 
	C645.811890,175.730026 645.842590,175.602310 645.894958,175.496475 
	C644.721497,174.958282 643.548035,174.420105 642.374512,173.881912 
	C642.260620,174.194733 642.146729,174.507553 642.032837,174.820374 
	C642.875000,175.220184 643.717102,175.619980 645.341125,176.083862 
M795.309998,327.826752 
	C795.089844,327.147614 794.869690,326.468475 794.649597,325.789337 
	C794.382629,325.901001 794.115723,326.012665 793.848816,326.124329 
	C794.205627,326.830719 794.562378,327.537109 795.309998,327.826752 
M748.784485,591.859558 
	C748.516113,591.294922 748.247742,590.730286 747.979309,590.165710 
	C747.481262,590.693604 746.983276,591.221497 746.485291,591.749451 
	C747.027100,592.037354 747.568848,592.325256 748.784485,591.859558 
M762.190979,596.982788 
	C762.211121,597.392761 762.231201,597.802734 762.251343,598.212708 
	C762.796082,597.805481 763.340759,597.398254 763.885437,596.991028 
	C763.509766,596.795410 763.134155,596.599731 762.190979,596.982788 
M603.197510,696.059875 
	C603.657227,695.927185 604.116943,695.794495 604.589905,695.657959 
	C604.504028,695.476196 604.451538,695.278442 604.405212,695.279846 
	C603.347107,695.312439 602.289673,695.366882 601.232117,695.417175 
	C601.613647,695.674500 601.995117,695.931824 603.197510,696.059875 
M301.011719,360.347351 
	C301.050476,359.532867 301.089233,358.718384 301.127991,357.903931 
	C300.735565,357.924561 300.343140,357.945221 299.950714,357.965881 
	C300.092010,359.010681 300.233337,360.055450 301.011719,360.347351 
M300.310211,363.396881 
	C300.125885,362.902618 299.941559,362.408325 299.757202,361.914062 
	C299.360504,362.848511 298.963776,363.782928 298.567078,364.717346 
	C299.052643,364.609070 299.538208,364.500793 300.310211,363.396881 
M699.625732,656.048523 
	C699.979370,655.777344 700.333008,655.506165 700.686646,655.234924 
	C700.155579,655.325562 699.624512,655.416199 699.625732,656.048523 
M656.545959,180.980621 
	C656.908081,180.811935 657.270264,180.643250 657.632385,180.474564 
	C657.107666,180.485458 656.582947,180.496368 656.545959,180.980621 
M640.974854,173.488724 
	C640.362915,173.422333 639.750916,173.355942 639.138977,173.289551 
	C639.565491,173.554764 639.991943,173.819962 640.974854,173.488724 
M788.500000,313.000000 
	C788.633362,312.799988 788.766663,312.600006 788.900024,312.399994 
	C788.600037,312.433319 788.299988,312.466644 788.500000,313.000000 
M787.000000,310.500000 
	C787.200012,310.633331 787.399963,310.766663 787.599976,310.899994 
	C787.566650,310.600006 787.533325,310.299988 787.000000,310.500000 
M781.000000,298.500000 
	C781.200012,298.633331 781.399963,298.766663 781.599976,298.899994 
	C781.566650,298.600006 781.533325,298.299988 781.000000,298.500000 
M780.500061,296.000031 
	C780.366699,296.200012 780.233337,296.400024 780.099976,296.600006 
	C780.399963,296.566681 780.700012,296.533325 780.500061,296.000031 
M652.969116,178.513474 
	C652.735962,178.436676 652.502747,178.359863 652.269592,178.283051 
	C652.344299,178.503952 652.419067,178.724869 652.969116,178.513474 
M654.963928,179.502991 
	C654.733765,179.425812 654.503662,179.348633 654.273499,179.271454 
	C654.346191,179.490280 654.418945,179.709106 654.963928,179.502991 
z"/>
<path fill="#F8F8F8" opacity="1.000000" stroke="none" 
	d="
M469.000061,397.148010 
	C514.813904,397.148010 560.127747,397.148010 606.037537,397.148010 
	C599.871277,417.027893 593.809875,436.569611 587.748535,456.111359 
	C587.438721,456.092102 587.128906,456.072845 586.819092,456.053589 
	C586.819092,454.409607 586.947266,452.753845 586.797424,451.123627 
	C586.058167,443.078918 586.317078,434.750275 584.231873,427.062042 
	C580.084778,411.771729 568.660828,403.844055 553.382996,402.321716 
	C543.516235,401.338593 533.471985,402.136963 523.015198,402.136963 
	C523.015198,403.409698 523.015198,405.038055 523.015198,406.666382 
	C523.015198,463.316986 523.116882,519.967957 522.925110,576.617920 
	C522.888916,587.316956 526.110413,592.334045 538.010498,595.234497 
	C542.000122,596.206848 546.136536,596.576599 550.165100,598.006714 
	C522.183960,598.006714 494.202759,598.006714 466.221558,598.006714 
	C466.188232,597.784668 466.154938,597.562561 466.121613,597.340515 
	C470.722290,596.532654 475.375183,595.945557 479.912933,594.871704 
	C489.802795,592.531372 493.462921,587.732605 493.464081,577.559265 
	C493.470520,520.742004 493.467133,463.924774 493.467133,407.107544 
	C493.467133,405.472809 493.467163,403.838074 493.467163,402.227081 
	C465.855011,400.756073 433.948608,400.900024 413.438995,455.899139 
	C416.553650,436.429901 419.668304,416.960663 422.837891,397.148010 
	C438.249176,397.148010 453.374634,397.148010 469.000061,397.148010 
z"/>
<path fill="#FAFAFA" opacity="1.000000" stroke="none" 
	d="
M690.788391,592.161865 
	C691.094604,592.755737 691.152710,593.804260 690.931946,593.866638 
	C679.974426,596.965149 669.092102,600.460876 657.962036,602.748291 
	C653.917480,603.579529 649.190918,601.821167 644.929382,600.673157 
	C640.165649,599.389954 635.576660,597.458130 631.478882,596.009155 
	C631.478882,545.089355 631.479980,494.619781 631.478027,444.150177 
	C631.477600,432.395294 629.343628,430.769684 617.767151,433.631348 
	C614.464478,434.447723 611.145020,435.196442 607.833252,435.976196 
	C607.661621,435.550323 607.489929,435.124481 607.318298,434.698608 
	C624.713440,426.620941 642.108582,418.543274 658.999573,410.699738 
	C658.999573,426.703644 658.999573,442.565979 658.999573,458.892212 
	C669.672607,458.892212 681.090332,458.892212 692.812988,458.892212 
	C692.315979,461.439270 691.915649,463.490662 691.445496,465.900208 
	C680.373108,465.900208 669.446106,465.900208 658.267578,465.900208 
	C658.267578,508.377228 658.267578,550.452698 658.267578,592.156494 
	C668.971985,592.156494 679.691101,592.156494 690.788391,592.161865 
z"/>
<path fill="#E6E6E6" opacity="1.000000" stroke="none" 
	d="
M546.070618,256.966797 
	C547.903503,261.822510 550.698059,266.383240 550.834961,271.022400 
	C551.360474,288.828217 551.258728,306.663055 550.952393,324.479523 
	C550.713074,338.401398 538.872620,345.994781 526.525208,340.594971 
	C521.877563,338.562469 518.437378,333.923187 516.835022,327.527161 
	C498.915802,327.069580 491.954224,309.335663 500.968018,298.700226 
	C499.622620,292.554047 497.390930,287.340393 497.617004,282.235596 
	C497.964600,274.387238 504.532318,268.650970 512.723938,267.527832 
	C515.269531,267.178802 516.638000,266.592285 517.625061,263.855103 
	C522.140991,251.332214 535.622925,248.030548 546.070618,256.966797 
M546.089172,263.952026 
	C542.910950,257.505463 538.050659,254.738495 531.804932,255.820023 
	C524.470825,257.090027 520.841003,261.922028 519.912781,271.650818 
	C510.565125,270.470764 505.424469,272.612579 502.287170,278.994446 
	C499.306793,285.057098 501.017639,290.704742 507.985809,297.417847 
	C502.327881,301.642303 499.104340,306.948181 501.960785,314.096100 
	C505.272095,322.382233 511.947296,324.312714 519.937683,322.619904 
	C520.316345,324.940186 520.471313,326.944550 520.986877,328.851410 
	C522.513733,334.498322 528.200012,338.800659 533.862305,338.755951 
	C539.863464,338.708588 546.132690,334.618134 546.456360,328.800995 
	C547.115356,316.956726 546.653503,305.050140 546.653503,292.455750 
	C540.944946,293.670258 535.657471,294.795227 530.163940,295.963989 
	C530.163940,292.629852 530.163940,290.354004 530.163940,287.942413 
	C532.676575,287.942413 536.292786,287.022827 537.052063,288.105957 
	C539.920288,292.197540 543.453430,289.658478 546.371521,290.263275 
	C546.371521,281.566406 546.371521,273.146851 546.089172,263.952026 
z"/>
<path fill="#EAEAEA" opacity="1.000000" stroke="none" 
	d="
M555.110168,317.958405 
	C555.110229,302.133667 555.037781,286.801575 555.133789,271.470520 
	C555.207703,259.677887 562.161011,251.896240 572.432434,251.816635 
	C579.511536,251.761765 586.174133,256.877899 588.876099,264.033752 
	C589.385559,265.382965 591.104187,267.170990 592.325745,267.219391 
	C606.813660,267.793518 614.347839,285.706909 604.708984,296.453094 
	C604.503052,296.682709 604.463562,297.061615 604.348877,297.371796 
	C614.876587,310.741394 605.867310,327.344055 589.515076,327.244995 
	C588.252258,333.496033 584.852905,338.299896 578.779358,340.942719 
	C569.103455,345.152954 558.166626,339.712463 556.008606,329.360077 
	C555.269714,325.815460 555.385132,322.092804 555.110168,317.958405 
M605.025513,307.033386 
	C603.019714,303.598114 601.013855,300.162842 598.946777,296.622711 
	C604.643677,292.127045 607.010437,286.026215 604.339233,279.874573 
	C600.835754,271.806488 594.226257,269.685944 585.961914,271.869476 
	C585.961914,270.406403 586.025146,269.413818 585.951782,268.431458 
	C585.424377,261.368988 579.563477,255.787155 572.541260,255.628372 
	C565.362122,255.466019 559.296265,260.714691 559.185364,268.244934 
	C558.901001,287.558258 558.736816,306.886017 559.187378,326.192535 
	C559.437439,336.906952 571.547668,342.598572 579.848206,335.811920 
	C583.494507,332.830658 585.119202,327.376801 587.882080,322.670349 
	C597.606506,325.171783 605.046692,319.412872 605.025513,307.033386 
z"/>
<path fill="#C4C4C4" opacity="1.000000" stroke="none" 
	d="
M373.861816,631.153137 
	C358.796417,618.895081 346.415619,604.151794 335.066772,588.546021 
	C328.693939,579.782654 323.032532,570.501953 317.745605,560.904785 
	C333.801971,586.236816 352.128815,609.658447 374.289429,630.321655 
	C374.138580,630.886780 374.000214,631.019958 373.861816,631.153137 
z"/>
<path fill="#3F3F3F" opacity="1.000000" stroke="none" 
	d="
M811.031738,467.784027 
	C810.527161,467.377930 810.472168,466.980530 810.802368,466.232452 
	C811.291748,465.786224 811.494446,465.618011 811.485413,465.605865 
	C811.323120,465.385742 811.135376,465.184418 810.953003,464.979095 
	C811.749878,456.995178 812.546753,449.011230 813.816956,440.579956 
	C814.984070,440.089417 815.677795,440.046173 816.371521,440.002930 
	C815.495850,449.142090 814.620239,458.281250 813.503235,467.729126 
	C812.668396,467.956146 812.074829,467.874420 811.031738,467.784027 
z"/>
<path fill="#C4C4C4" opacity="1.000000" stroke="none" 
	d="
M421.993530,656.940552 
	C420.207031,655.247437 418.605316,653.840576 417.003632,652.433655 
	C417.138580,652.172607 417.273499,651.911560 417.408417,651.650574 
	C423.632355,655.177368 429.856293,658.704224 436.341553,662.379089 
	C431.350433,663.381287 431.368011,663.359314 424.724945,658.049072 
	C424.073364,657.528137 423.036407,657.489380 421.993530,656.940552 
z"/>
<path fill="#C4C4C4" opacity="1.000000" stroke="none" 
	d="
M376.145721,631.838745 
	C382.593353,636.986877 389.040985,642.135071 395.488647,647.283203 
	C395.190613,647.666748 394.892578,648.050293 394.594543,648.433899 
	C388.292603,643.324829 381.990662,638.215759 375.705444,632.672424 
	C375.863373,632.105042 376.004547,631.971863 376.145721,631.838745 
z"/>
<path fill="#CDCDCD" opacity="1.000000" stroke="none" 
	d="
M553.093689,698.192810 
	C561.535400,698.192810 569.977173,698.192810 578.418884,698.192810 
	C578.436890,698.272461 578.454956,698.352112 578.472961,698.431763 
	C570.312622,698.846069 562.152222,699.260376 553.629761,699.404907 
	C553.214111,698.820190 553.156128,698.506042 553.093689,698.192810 
z"/>
<path fill="#B4B4B4" opacity="1.000000" stroke="none" 
	d="
M818.297119,483.717743 
	C817.515686,482.953217 816.423584,481.815826 816.566467,480.863770 
	C817.225464,476.471985 818.222351,472.130524 819.159790,467.784332 
	C819.175293,467.712524 819.968628,467.808472 820.656128,467.887665 
	C820.127258,473.109558 819.341248,478.269897 818.297119,483.717743 
z"/>
<path fill="#A2A2A2" opacity="1.000000" stroke="none" 
	d="
M557.040405,695.381348 
	C550.333862,695.357605 544.072205,695.357605 537.810608,695.357605 
	C537.815491,694.965820 537.820435,694.573975 537.825317,694.182190 
	C546.706543,694.182190 555.587769,694.182190 564.468994,694.182190 
	C564.493469,694.465759 564.518005,694.749329 564.542480,695.032837 
	C562.190125,695.156921 559.837708,695.280945 557.040405,695.381348 
z"/>
<path fill="#D7D7D7" opacity="1.000000" stroke="none" 
	d="
M294.053467,402.321747 
	C294.440247,401.977966 294.721008,401.977722 295.422882,401.972137 
	C295.513397,406.563995 295.182800,411.161163 294.852203,415.758331 
	C294.299530,415.743866 293.746887,415.729370 293.194214,415.714905 
	C293.445282,411.365021 293.696381,407.015137 294.053467,402.321747 
z"/>
<path fill="#8B8B8B" opacity="1.000000" stroke="none" 
	d="
M552.628357,698.092224 
	C553.156128,698.506042 553.214111,698.820190 553.219727,699.370239 
	C545.962097,699.605408 538.752563,699.605408 531.542969,699.605408 
	C531.552063,699.067505 531.561157,698.529541 531.570190,697.991638 
	C538.434448,697.991638 545.298767,697.991638 552.628357,698.092224 
z"/>
<path fill="#3F3F3F" opacity="1.000000" stroke="none" 
	d="
M281.960388,425.011841 
	C281.959381,420.397980 281.959381,416.280457 281.959381,412.162964 
	C282.223328,412.168427 282.487274,412.173889 282.751221,412.179382 
	C282.751221,422.026459 282.751221,431.873505 282.751221,441.720581 
	C282.487946,441.723907 282.224701,441.727203 281.961426,441.730530 
	C281.961426,436.323090 281.961426,430.915649 281.960388,425.011841 
z"/>
<path fill="#D7D7D7" opacity="1.000000" stroke="none" 
	d="
M292.975037,421.001526 
	C293.106384,419.441162 293.233795,418.389893 293.361206,417.338593 
	C293.832153,417.373840 294.303131,417.409088 294.774109,417.444336 
	C294.481171,423.027252 294.188263,428.610138 293.895355,434.193024 
	C293.587280,434.190674 293.279205,434.188293 292.971130,434.185913 
	C292.971130,429.960815 292.971130,425.735687 292.975037,421.001526 
z"/>
<path fill="#C4C4C4" opacity="1.000000" stroke="none" 
	d="
M403.434845,652.684082 
	C404.914368,653.718811 406.077820,654.564941 407.241272,655.411011 
	C407.013489,655.753296 406.785706,656.095642 406.557892,656.437927 
	C402.852539,653.933472 399.147156,651.429077 395.441772,648.924622 
	C395.682373,648.534363 395.922974,648.144104 396.163544,647.753906 
	C398.481964,649.334412 400.800354,650.914917 403.434845,652.684082 
z"/>
<path fill="#C4C4C4" opacity="1.000000" stroke="none" 
	d="
M444.940979,668.159973 
	C442.680084,667.045654 440.419220,665.931335 438.123657,664.361145 
	C438.208038,663.780334 438.327118,663.655334 438.446167,663.530396 
	C442.689117,665.489197 446.932098,667.447937 451.175049,669.406738 
	C451.101990,669.649231 451.028931,669.891724 450.955872,670.134155 
	C450.241852,670.079407 449.527863,670.024658 448.288757,669.613037 
	C446.822784,668.890747 445.881866,668.525391 444.940979,668.159973 
z"/>
<path fill="#B4B4B4" opacity="1.000000" stroke="none" 
	d="
M815.131714,493.610107 
	C814.124512,490.630646 813.886475,487.732269 817.570740,485.949554 
	C817.040527,488.473511 816.211670,491.002258 815.131714,493.610107 
z"/>
<path fill="#A2A2A2" opacity="1.000000" stroke="none" 
	d="
M710.889648,619.897156 
	C712.976379,617.932922 715.063171,615.968750 717.641113,614.066162 
	C718.253723,614.244629 718.375305,614.361450 718.496826,614.478333 
	C716.357666,616.385071 714.218506,618.291809 711.633789,620.194336 
	C711.188232,620.190186 710.889648,619.897156 710.889648,619.897156 
z"/>
<path fill="#A2A2A2" opacity="1.000000" stroke="none" 
	d="
M721.980347,609.982727 
	C724.342102,608.425598 726.703918,606.868469 729.065674,605.311340 
	C729.308167,605.657104 729.550720,606.002808 729.793274,606.348572 
	C727.601074,607.594055 725.408936,608.839539 722.745483,610.135254 
	C722.274231,610.185425 721.980347,609.982727 721.980347,609.982727 
z"/>
<path fill="#3F3F3F" opacity="1.000000" stroke="none" 
	d="
M803.657349,498.010010 
	C803.694458,496.500977 804.046692,494.923706 804.701233,493.173584 
	C804.659851,494.647736 804.316101,496.294800 803.657349,498.010010 
z"/>
<path fill="#3F3F3F" opacity="1.000000" stroke="none" 
	d="
M801.537598,504.971130 
	C801.633606,503.516632 802.036133,501.975922 802.701050,500.214478 
	C802.590393,501.624115 802.217224,503.254517 801.537598,504.971130 
z"/>
<path fill="#3F3F3F" opacity="1.000000" stroke="none" 
	d="
M444.944092,668.529785 
	C445.881866,668.525391 446.822784,668.890747 447.899750,669.529663 
	C447.467682,670.188477 446.899536,670.573853 446.331390,670.959167 
	C445.869995,670.272644 445.408569,669.586060 444.944092,668.529785 
z"/>
<path fill="#3F3F3F" opacity="1.000000" stroke="none" 
	d="
M805.594849,491.031311 
	C805.366821,490.474976 805.407532,489.875000 805.727173,489.138123 
	C805.958557,489.663361 805.911072,490.325500 805.594849,491.031311 
z"/>
<path fill="#3F3F3F" opacity="1.000000" stroke="none" 
	d="
M808.934082,477.043823 
	C808.687683,476.519012 808.675964,475.918427 808.945068,475.182159 
	C809.206909,475.687012 809.187866,476.327545 808.934082,477.043823 
z"/>
<path fill="#3F3F3F" opacity="1.000000" stroke="none" 
	d="
M807.647888,482.044312 
	C807.431885,481.488403 807.481262,480.892639 807.806274,480.156433 
	C808.025757,480.678833 807.969482,481.341644 807.647888,482.044312 
z"/>
<path fill="#3F3F3F" opacity="1.000000" stroke="none" 
	d="
M806.816040,486.076172 
	C806.605408,485.543427 806.655884,484.978333 806.942322,484.221252 
	C807.144531,484.700775 807.110840,485.372284 806.816040,486.076172 
z"/>
<path fill="#3F3F3F" opacity="1.000000" stroke="none" 
	d="
M810.155029,470.936157 
	C809.955872,470.339783 810.014282,469.561768 810.328247,468.610779 
	C810.526733,469.210022 810.469666,469.982300 810.155029,470.936157 
z"/>
<path fill="#8B8B8B" opacity="1.000000" stroke="none" 
	d="
M529.283752,698.133789 
	C529.031006,698.277649 528.686768,698.343384 528.342590,698.409180 
	C528.625854,698.291382 528.909058,698.173523 529.283752,698.133789 
z"/>
<path fill="#C4C4C4" opacity="1.000000" stroke="none" 
	d="
M375.490356,632.414124 
	C374.855804,632.271362 374.453125,631.952637 373.956146,631.393555 
	C374.000214,631.019958 374.138580,630.886780 374.505920,630.578064 
	C375.137360,630.722473 375.539886,631.042480 376.044067,631.600586 
	C376.004547,631.971863 375.863373,632.105042 375.490356,632.414124 
z"/>
<path fill="#3F3F3F" opacity="1.000000" stroke="none" 
	d="
M437.460999,666.396851 
	C437.526642,666.347778 437.395355,666.445923 437.460999,666.396851 
z"/>
<path fill="#3F3F3F" opacity="1.000000" stroke="none" 
	d="
M443.583801,669.546326 
	C443.466888,669.643005 443.424072,669.287842 443.424072,669.287842 
	C443.424072,669.287842 443.700745,669.449646 443.583801,669.546326 
z"/>
<path fill="#F8F8F8" opacity="1.000000" stroke="none" 
	d="
M662.497925,668.507324 
	C662.501831,668.489197 662.493958,668.525452 662.497925,668.507324 
z"/>
<path fill="#3F3F3F" opacity="1.000000" stroke="none" 
	d="
M441.429749,668.329529 
	C441.525452,668.241211 441.577454,668.543274 441.577454,668.543274 
	C441.577454,668.543274 441.334076,668.417847 441.429749,668.329529 
z"/>
<path fill="#3F3F3F" opacity="1.000000" stroke="none" 
	d="
M439.555878,667.536377 
	C439.470459,667.599304 439.450439,667.351685 439.450439,667.351685 
	C439.450439,667.351685 439.641296,667.473389 439.555878,667.536377 
z"/>
<path fill="#A2A2A2" opacity="1.000000" stroke="none" 
	d="
M711.332397,620.341736 
	C711.088379,620.642395 710.700134,620.791504 710.311890,620.940552 
	C710.312500,620.660706 710.313171,620.380920 710.601685,619.999146 
	C710.889648,619.897156 711.188232,620.190186 711.332397,620.341736 
z"/>
<path fill="#3F3F3F" opacity="1.000000" stroke="none" 
	d="
M435.592010,665.550293 
	C435.466370,665.656372 435.415344,665.272583 435.415344,665.272583 
	C435.415344,665.272583 435.717651,665.444153 435.592010,665.550293 
z"/>
<path fill="#C4C4C4" opacity="1.000000" stroke="none" 
	d="
M437.908325,664.090820 
	C437.381439,663.998718 437.035217,663.721130 436.688965,663.443604 
	C437.096710,663.316589 437.504425,663.189514 438.179169,663.296448 
	C438.327118,663.655334 438.208038,663.780334 437.908325,664.090820 
z"/>
<path fill="#A2A2A2" opacity="1.000000" stroke="none" 
	d="
M720.932861,610.937378 
	C721.111450,610.652161 721.290039,610.366943 721.724487,610.032227 
	C721.980347,609.982727 722.274231,610.185425 722.426086,610.288818 
	C722.375977,610.662537 722.174011,610.932861 721.608093,611.207764 
	C721.244141,611.212402 720.932861,610.937378 720.932861,610.937378 
z"/>
<path fill="#A2A2A2" opacity="1.000000" stroke="none" 
	d="
M721.395874,611.354248 
	C721.396851,611.790527 721.189148,612.037048 720.561768,612.210815 
	C720.199097,612.186096 719.888000,611.892029 719.888000,611.892029 
	C720.067932,611.610168 720.247925,611.328369 720.680420,610.991943 
	C720.932861,610.937378 721.244141,611.212402 721.395874,611.354248 
z"/>
<path fill="#A2A2A2" opacity="1.000000" stroke="none" 
	d="
M720.352173,612.335693 
	C720.372559,612.791260 720.173157,613.044678 719.535645,613.203857 
	C719.164307,613.162231 718.844788,612.847046 718.844727,612.847046 
	C719.026978,612.569458 719.209229,612.291931 719.639771,611.953186 
	C719.888000,611.892029 720.199097,612.186096 720.352173,612.335693 
z"/>
<path fill="#A2A2A2" opacity="1.000000" stroke="none" 
	d="
M717.952515,613.949829 
	C717.966797,613.506287 718.160828,613.240662 718.599854,612.911011 
	C718.844788,612.847046 719.164307,613.162231 719.322266,613.322754 
	C719.367432,613.793152 719.179688,614.047791 718.706909,614.362793 
	C718.375305,614.361450 718.253723,614.244629 717.952515,613.949829 
z"/>
<path fill="#6E6E6E" opacity="1.000000" stroke="none" 
	d="
M813.109802,390.023773 
	C813.120422,388.640533 813.131042,387.257294 813.439697,385.440491 
	C814.117798,385.016296 814.497986,385.025665 814.878113,385.035034 
	C815.588684,391.423065 816.299255,397.811066 816.535645,404.684692 
	C815.778564,406.836365 815.327148,408.495178 815.254822,410.170349 
	C815.163269,412.289154 815.380371,414.421295 815.464233,416.547668 
	C814.584656,411.282593 813.705139,406.017517 813.155518,400.344604 
	C813.667175,399.946899 813.848938,399.957031 814.038086,400.270508 
	C814.110046,401.127014 814.174744,401.680145 814.239441,402.233307 
	C814.436584,402.174133 814.633667,402.114960 814.830811,402.055786 
	C814.547058,401.373688 814.263367,400.691620 813.990479,399.614380 
	C813.184753,398.166107 812.368103,397.112976 811.551453,396.059875 
	C811.613953,394.972443 811.676453,393.885071 812.137085,392.400269 
	C812.726746,391.343170 812.918274,390.683472 813.109802,390.023773 
z"/>
<path fill="#3F3F3F" opacity="1.000000" stroke="none" 
	d="
M751.276184,612.271606 
	C744.382935,619.493835 737.489685,626.716003 730.596436,633.938232 
	C730.158875,633.517944 729.721252,633.097717 729.283691,632.677490 
	C736.255920,625.496399 743.228149,618.315308 750.585754,611.342041 
	C751.072754,611.790405 751.174438,612.031006 751.276184,612.271606 
z"/>
<path fill="#3F3F3F" opacity="1.000000" stroke="none" 
	d="
M705.223267,651.365967 
	C713.152954,645.113647 721.082581,638.861328 729.012268,632.609009 
	C729.340027,632.992371 729.667786,633.375732 729.995544,633.759094 
	C722.776978,640.410278 715.017090,646.437744 706.321899,651.925171 
	C705.570190,651.653015 705.396729,651.509460 705.223267,651.365967 
z"/>
<path fill="#6E6E6E" opacity="1.000000" stroke="none" 
	d="
M816.562500,439.661163 
	C815.677795,440.046173 814.984070,440.089417 813.943604,440.151367 
	C813.910828,435.540802 814.224854,430.911530 815.159790,426.443542 
	C816.156311,428.386810 816.531921,430.168793 816.907532,431.950745 
	C816.856201,434.406952 816.804871,436.863190 816.562500,439.661163 
z"/>
<path fill="#3F3F3F" opacity="1.000000" stroke="none" 
	d="
M816.961182,431.487946 
	C816.531921,430.168793 816.156311,428.386810 815.536743,426.352570 
	C815.305725,423.167267 815.318787,420.234283 815.398010,416.924469 
	C815.380371,414.421295 815.163269,412.289154 815.254822,410.170349 
	C815.327148,408.495178 815.778564,406.836365 816.443115,405.114838 
	C816.888062,413.714630 816.951416,422.369873 816.961182,431.487946 
z"/>
<path fill="#8B8B8B" opacity="1.000000" stroke="none" 
	d="
M814.888550,384.631653 
	C814.497986,385.025665 814.117798,385.016296 813.452759,385.025574 
	C812.285950,379.599854 811.403992,374.155518 810.522034,368.711182 
	C810.976746,368.635712 811.431519,368.560242 811.886292,368.484772 
	C812.890503,373.732635 813.894714,378.980469 814.888550,384.631653 
z"/>
<path fill="#3F3F3F" opacity="1.000000" stroke="none" 
	d="
M758.848999,603.571167 
	C757.205505,605.596863 755.562073,607.622559 753.492859,609.501343 
	C752.949951,609.143005 752.832825,608.931580 752.715759,608.720215 
	C754.207031,606.845520 755.698364,604.970825 757.741211,603.143677 
	C758.478149,603.317810 758.663574,603.444458 758.848999,603.571167 
z"/>
<path fill="#4B4B4B" opacity="1.000000" stroke="none" 
	d="
M783.246704,300.753174 
	C784.679382,303.366241 786.112061,305.979309 787.544739,308.592377 
	C787.114746,308.813843 786.684692,309.035309 786.254639,309.256805 
	C785.072327,306.884705 783.890015,304.512604 782.768433,301.636444 
	C782.968323,301.005981 783.107483,300.879578 783.246704,300.753174 
z"/>
<path fill="#A2A2A2" opacity="1.000000" stroke="none" 
	d="
M811.395935,396.314209 
	C812.368103,397.112976 813.184753,398.166107 814.004333,399.605530 
	C814.007263,399.991821 814.030701,399.967133 814.030701,399.967133 
	C813.848938,399.957031 813.667175,399.946899 813.212891,399.952698 
	C809.555115,400.244415 811.532349,397.839264 811.395935,396.314209 
z"/>
<path fill="#4B4B4B" opacity="1.000000" stroke="none" 
	d="
M776.652588,291.205658 
	C776.231934,290.305878 776.020691,289.750854 775.809448,289.195862 
	C776.115417,289.030640 776.421326,288.865448 776.727234,288.700226 
	C777.924988,290.733368 779.122742,292.766541 780.320496,294.799683 
	C779.936462,295.031708 779.552429,295.263763 779.168396,295.495789 
	C778.399597,294.180664 777.630859,292.865570 776.652588,291.205658 
z"/>
<path fill="#4B4B4B" opacity="1.000000" stroke="none" 
	d="
M789.844116,317.190247 
	C789.441284,315.958008 789.156860,315.099579 788.872437,314.241180 
	C789.177490,314.118500 789.482544,313.995850 789.787537,313.873199 
	C790.640686,315.771149 791.493774,317.669067 792.346863,319.567017 
	C792.077271,319.717804 791.807678,319.868622 791.538025,320.019440 
	C791.012878,319.200989 790.487732,318.382568 789.844116,317.190247 
z"/>
<path fill="#3F3F3F" opacity="1.000000" stroke="none" 
	d="
M705.994019,652.023010 
	C704.917908,653.296265 703.591370,654.343018 702.264832,655.389832 
	C701.988647,655.079285 701.712463,654.768799 701.436279,654.458313 
	C702.506165,653.556030 703.576050,652.653748 704.934570,651.558716 
	C705.396729,651.509460 705.570190,651.653015 705.994019,652.023010 
z"/>
<path fill="#3F3F3F" opacity="1.000000" stroke="none" 
	d="
M758.027466,602.983582 
	C758.520508,601.708008 759.278809,600.640015 760.460205,599.650391 
	C761.011169,599.906799 761.138977,600.084778 761.266846,600.262695 
	C760.604431,601.231995 759.942017,602.201355 759.064331,603.370911 
	C758.663574,603.444458 758.478149,603.317810 758.027466,602.983582 
z"/>
<path fill="#A2A2A2" opacity="1.000000" stroke="none" 
	d="
M812.811584,390.042664 
	C812.918274,390.683472 812.726746,391.343170 812.222961,391.999451 
	C812.111633,391.351166 812.312500,390.706329 812.811584,390.042664 
z"/>
<path fill="#4B4B4B" opacity="1.000000" stroke="none" 
	d="
M792.552368,323.422729 
	C792.198303,322.517853 792.042419,321.950073 791.929871,321.540039 
	C792.224426,321.207672 792.322693,321.096802 792.420959,320.985931 
	C793.031250,322.189178 793.641541,323.392395 794.251770,324.595612 
	C793.984192,324.707611 793.716553,324.819611 793.448914,324.931580 
	C793.216125,324.540985 792.983337,324.150391 792.552368,323.422729 
z"/>
<path fill="#4B4B4B" opacity="1.000000" stroke="none" 
	d="
M774.707153,287.653503 
	C774.053589,286.709167 773.620789,286.074127 773.188049,285.439087 
	C773.489075,285.231750 773.790161,285.024445 774.091187,284.817108 
	C774.655212,285.904633 775.219238,286.992157 775.783264,288.079681 
	C775.652954,288.098145 775.517700,288.147461 775.393616,288.127441 
	C775.233765,288.101624 775.082825,288.020203 774.707153,287.653503 
z"/>
<path fill="#6E6E6E" opacity="1.000000" stroke="none" 
	d="
M644.950195,176.051819 
	C643.717102,175.619980 642.875000,175.220184 642.032837,174.820374 
	C642.146729,174.507553 642.260620,174.194733 642.374512,173.881912 
	C643.548035,174.420105 644.721497,174.958282 645.894958,175.496475 
	C645.842590,175.602310 645.811890,175.730026 645.732605,175.808731 
	C645.621033,175.919495 645.473328,175.993912 644.950195,176.051819 
z"/>
<path fill="#4B4B4B" opacity="1.000000" stroke="none" 
	d="
M795.114563,328.035126 
	C794.562378,327.537109 794.205627,326.830719 793.848816,326.124329 
	C794.115723,326.012665 794.382629,325.901001 794.649597,325.789337 
	C794.869690,326.468475 795.089844,327.147614 795.114563,328.035126 
z"/>
<path fill="#111111" opacity="1.000000" stroke="none" 
	d="
M748.447571,592.236328 
	C747.568848,592.325256 747.027100,592.037354 746.485291,591.749451 
	C746.983276,591.221497 747.481262,590.693604 747.979309,590.165710 
	C748.247742,590.730286 748.516113,591.294922 748.447571,592.236328 
z"/>
<path fill="#3F3F3F" opacity="1.000000" stroke="none" 
	d="
M762.474731,596.693481 
	C763.134155,596.599731 763.509766,596.795410 763.885437,596.991028 
	C763.340759,597.398254 762.796082,597.805481 762.251343,598.212708 
	C762.231201,597.802734 762.211121,597.392761 762.474731,596.693481 
z"/>
<path fill="#111111" opacity="1.000000" stroke="none" 
	d="
M602.787109,696.124512 
	C601.995117,695.931824 601.613647,695.674500 601.232117,695.417175 
	C602.289673,695.366882 603.347107,695.312439 604.405212,695.279846 
	C604.451538,695.278442 604.504028,695.476196 604.589905,695.657959 
	C604.116943,695.794495 603.657227,695.927185 602.787109,696.124512 
z"/>
<path fill="#111111" opacity="1.000000" stroke="none" 
	d="
M297.339722,369.509979 
	C297.694244,368.197266 298.048737,366.884552 298.403259,365.571808 
	C298.779144,365.652679 299.155029,365.733551 299.530914,365.814423 
	C299.335022,367.153015 299.139130,368.491577 298.467926,369.948486 
	C297.774994,369.881195 297.557343,369.695587 297.339722,369.509979 
z"/>
<path fill="#111111" opacity="1.000000" stroke="none" 
	d="
M298.308472,370.357178 
	C298.290466,371.935608 297.956573,373.223663 297.622681,374.511749 
	C297.236603,374.418518 296.850555,374.325317 296.464478,374.232117 
	C296.657104,372.924774 296.849762,371.617462 297.191040,369.910034 
	C297.557343,369.695587 297.774994,369.881195 298.308472,370.357178 
z"/>
<path fill="#111111" opacity="1.000000" stroke="none" 
	d="
M301.450348,353.538422 
	C301.713531,352.642334 301.976746,351.746246 302.239929,350.850189 
	C302.514740,350.886200 302.789551,350.922211 303.064362,350.958221 
	C303.002045,351.884308 302.939728,352.810425 302.424286,353.857056 
	C301.797546,353.831238 301.623962,353.684814 301.450348,353.538422 
z"/>
<path fill="#111111" opacity="1.000000" stroke="none" 
	d="
M302.229675,354.199463 
	C302.159821,355.388885 301.831421,356.356445 301.503052,357.324005 
	C301.269196,357.276947 301.035370,357.229858 300.801544,357.182800 
	C300.895416,356.207245 300.989288,355.231659 301.266785,353.897278 
	C301.623962,353.684814 301.797546,353.831238 302.229675,354.199463 
z"/>
<path fill="#111111" opacity="1.000000" stroke="none" 
	d="
M300.693176,360.723785 
	C300.233337,360.055450 300.092010,359.010681 299.950714,357.965881 
	C300.343140,357.945221 300.735565,357.924561 301.127991,357.903931 
	C301.089233,358.718384 301.050476,359.532867 300.693176,360.723785 
z"/>
<path fill="#111111" opacity="1.000000" stroke="none" 
	d="
M300.166992,363.894684 
	C299.538208,364.500793 299.052643,364.609070 298.567078,364.717346 
	C298.963776,363.782928 299.360504,362.848511 299.757202,361.914062 
	C299.941559,362.408325 300.125885,362.902618 300.166992,363.894684 
z"/>
<path fill="#111111" opacity="1.000000" stroke="none" 
	d="
M297.427429,348.309174 
	C297.582031,347.271240 298.098816,346.646454 299.202332,345.312317 
	C299.064545,347.100586 298.997559,347.969666 298.758881,349.158508 
	C298.321320,349.226257 298.055481,348.974304 297.427429,348.309174 
z"/>
<path fill="#3F3F3F" opacity="1.000000" stroke="none" 
	d="
M699.359619,655.777710 
	C699.624512,655.416199 700.155579,655.325562 700.686646,655.234985 
	C700.333008,655.506165 699.979370,655.777344 699.359619,655.777710 
z"/>
<path fill="#6E6E6E" opacity="1.000000" stroke="none" 
	d="
M648.657410,177.364624 
	C648.122803,176.997955 647.588257,176.631302 647.053650,176.264618 
	C647.620850,176.257980 648.188049,176.251343 648.836182,176.664185 
	C648.917114,177.083694 648.657410,177.364624 648.657410,177.364624 
z"/>
<path fill="#6E6E6E" opacity="1.000000" stroke="none" 
	d="
M656.302124,180.743942 
	C656.582947,180.496368 657.107666,180.485458 657.632385,180.474579 
	C657.270264,180.643250 656.908081,180.811935 656.302124,180.743942 
z"/>
<path fill="#6E6E6E" opacity="1.000000" stroke="none" 
	d="
M649.046265,176.942535 
	C649.744629,177.112488 650.313904,177.423599 650.883118,177.734711 
	C650.307312,177.779633 649.731506,177.824554 648.906555,177.617050 
	C648.657410,177.364624 648.917114,177.083694 649.046265,176.942535 
z"/>
<path fill="#6E6E6E" opacity="1.000000" stroke="none" 
	d="
M640.696655,173.786957 
	C639.991943,173.819962 639.565491,173.554764 639.138977,173.289551 
	C639.750916,173.355942 640.362915,173.422333 640.696655,173.786957 
z"/>
<path fill="#4B4B4B" opacity="1.000000" stroke="none" 
	d="
M788.250000,312.750000 
	C788.299988,312.466644 788.600037,312.433319 788.900024,312.399994 
	C788.766663,312.600006 788.633362,312.799988 788.250000,312.750000 
z"/>
<path fill="#4B4B4B" opacity="1.000000" stroke="none" 
	d="
M787.250000,310.250000 
	C787.533325,310.299988 787.566650,310.600006 787.599976,310.899994 
	C787.399963,310.766663 787.200012,310.633331 787.250000,310.250000 
z"/>
<path fill="#4B4B4B" opacity="1.000000" stroke="none" 
	d="
M782.613403,301.314148 
	C782.219055,301.050537 782.040344,300.605133 781.861633,300.159760 
	C782.256409,300.119415 782.651245,300.079071 783.146362,300.395966 
	C783.107483,300.879578 782.968323,301.005981 782.613403,301.314148 
z"/>
<path fill="#111111" opacity="1.000000" stroke="none" 
	d="
M810.875000,465.254364 
	C811.135376,465.184418 811.323120,465.385742 811.485413,465.605865 
	C811.494446,465.618011 811.291748,465.786224 811.002380,465.991638 
	C810.810486,465.910889 810.803772,465.720276 810.875000,465.254364 
z"/>
<path fill="#4B4B4B" opacity="1.000000" stroke="none" 
	d="
M781.250000,298.250000 
	C781.533325,298.299988 781.566650,298.600006 781.599976,298.899994 
	C781.399963,298.766663 781.200012,298.633331 781.250000,298.250000 
z"/>
<path fill="#4B4B4B" opacity="1.000000" stroke="none" 
	d="
M780.750000,296.250000 
	C780.700012,296.533325 780.399963,296.566681 780.099976,296.600037 
	C780.233337,296.400024 780.366699,296.200012 780.750000,296.250000 
z"/>
<path fill="#3F3F3F" opacity="1.000000" stroke="none" 
	d="
M760.718384,599.444458 
	C760.954956,598.963318 761.356445,598.766541 761.757996,598.569763 
	C761.793274,599.003357 761.828552,599.436951 761.565308,600.066650 
	C761.138977,600.084778 761.011169,599.906799 760.718384,599.444458 
z"/>
<path fill="#3F3F3F" opacity="1.000000" stroke="none" 
	d="
M753.185181,609.697144 
	C752.889648,610.147156 752.476013,610.254395 752.062439,610.361694 
	C752.080994,609.929565 752.099609,609.497375 752.416992,608.892700 
	C752.832825,608.931580 752.949951,609.143005 753.185181,609.697144 
z"/>
<path fill="#6E6E6E" opacity="1.000000" stroke="none" 
	d="
M652.731445,178.729614 
	C652.419067,178.724869 652.344299,178.503952 652.269592,178.283051 
	C652.502747,178.359863 652.735962,178.436676 652.731445,178.729614 
z"/>
<path fill="#3F3F3F" opacity="1.000000" stroke="none" 
	d="
M750.922119,611.161133 
	C751.193054,611.170288 751.513062,611.568115 751.554626,612.118774 
	C751.174438,612.031006 751.072754,611.790405 750.922119,611.161133 
z"/>
<path fill="#6E6E6E" opacity="1.000000" stroke="none" 
	d="
M654.727783,179.715454 
	C654.418945,179.709106 654.346191,179.490280 654.273499,179.271454 
	C654.503662,179.348633 654.733765,179.425812 654.727783,179.715454 
z"/>
<path fill="#141414" opacity="1.000000" stroke="none" 
	d="
M546.230347,264.339661 
	C546.371521,273.146851 546.371521,281.566406 546.371521,290.263275 
	C543.453430,289.658478 539.920288,292.197540 537.052063,288.105957 
	C536.292786,287.022827 532.676575,287.942413 530.163940,287.942413 
	C530.163940,290.354004 530.163940,292.629852 530.163940,295.963989 
	C535.657471,294.795227 540.944946,293.670258 546.653503,292.455750 
	C546.653503,305.050140 547.115356,316.956726 546.456360,328.800995 
	C546.132690,334.618134 539.863464,338.708588 533.862305,338.755951 
	C528.200012,338.800659 522.513733,334.498322 520.986877,328.851410 
	C520.471313,326.944550 520.316345,324.940186 519.937683,322.619904 
	C511.947296,324.312714 505.272095,322.382233 501.960785,314.096100 
	C499.104340,306.948181 502.327881,301.642303 507.985809,297.417847 
	C501.017639,290.704742 499.306793,285.057098 502.287170,278.994446 
	C505.424469,272.612579 510.565125,270.470764 519.912781,271.650818 
	C520.841003,261.922028 524.470825,257.090027 531.804932,255.820023 
	C538.050659,254.738495 542.910950,257.505463 546.230347,264.339661 
M518.062256,281.536407 
	C517.950562,274.128998 512.931580,279.532196 509.880585,277.644226 
	C510.695679,281.443146 508.591522,284.614258 512.596741,287.062653 
	C513.822510,287.811981 512.786926,292.260437 512.786926,295.351868 
	C516.600281,295.351868 519.711243,295.351868 523.490417,295.351868 
	C523.490417,299.238892 523.490417,302.790833 523.490417,306.250854 
	C532.517456,307.136658 533.709412,306.997314 536.563538,304.316833 
	C532.784607,304.316833 529.622742,304.316833 526.007812,304.316833 
	C526.007812,300.133820 526.007812,296.569580 526.007812,292.576538 
	C522.276001,292.576538 519.013123,292.576538 514.087463,292.576538 
	C515.552124,289.664642 516.629822,287.754028 517.474060,285.745331 
	C517.891907,284.751099 517.879822,283.576172 518.062256,281.536407 
M539.297424,305.823608 
	C539.296631,311.985687 539.406860,318.151978 539.175781,324.305389 
	C539.140991,325.232056 537.300903,326.991302 536.658691,326.838715 
	C533.893921,326.181915 531.264343,324.955841 528.288208,323.824005 
	C528.288208,327.693024 528.288208,330.081329 528.288208,333.596436 
	C533.115540,332.073914 537.240784,330.772827 541.383911,329.466095 
	C541.383911,319.566528 541.383911,309.679077 541.383911,299.791656 
	C540.902283,299.736511 540.420715,299.681366 539.939087,299.626221 
	C539.725220,301.390778 539.511353,303.155365 539.297424,305.823608 
M538.339111,276.330353 
	C538.530457,278.446136 538.721863,280.561890 538.913208,282.677673 
	C539.473938,282.604492 540.034607,282.531342 540.595337,282.458160 
	C540.595337,277.449432 540.595337,272.440674 540.595337,267.716492 
	C535.735046,266.310028 531.294983,265.025177 526.322754,263.586334 
	C526.322754,267.157257 526.322754,269.541107 526.322754,272.944580 
	C530.530701,271.896912 534.234314,270.974823 538.339172,269.952820 
	C538.339172,272.143921 538.339172,273.780731 538.339111,276.330353 
M521.914856,317.769073 
	C519.828674,317.769073 517.742432,317.769073 515.480042,317.769073 
	C515.480042,314.806549 514.562500,311.278107 515.646484,310.484863 
	C519.381165,307.751923 517.665466,304.574615 517.888489,301.502014 
	C515.094116,301.502014 512.728455,301.502014 510.018524,301.502014 
	C510.166870,304.196533 509.632904,308.130890 510.534088,308.492859 
	C514.309753,310.009674 512.609619,312.843445 512.914490,315.135284 
	C513.121277,316.690002 512.954041,318.294464 512.954041,319.563477 
	C517.396362,319.563477 521.183960,319.563477 524.971558,319.563477 
	C525.016724,319.257141 525.061829,318.950806 525.106995,318.644470 
	C524.349243,318.353546 523.591431,318.062653 521.914856,317.769073 
z"/>
<path fill="#151515" opacity="1.000000" stroke="none" 
	d="
M605.068054,307.449341 
	C605.046692,319.412872 597.606506,325.171783 587.882080,322.670349 
	C585.119202,327.376801 583.494507,332.830658 579.848206,335.811920 
	C571.547668,342.598572 559.437439,336.906952 559.187378,326.192535 
	C558.736816,306.886017 558.901001,287.558258 559.185364,268.244934 
	C559.296265,260.714691 565.362122,255.466019 572.541260,255.628372 
	C579.563477,255.787155 585.424377,261.368988 585.951782,268.431458 
	C586.025146,269.413818 585.961914,270.406403 585.961914,271.869476 
	C594.226257,269.685944 600.835754,271.806488 604.339233,279.874573 
	C607.010437,286.026215 604.643677,292.127045 598.946777,296.622711 
	C601.013855,300.162842 603.019714,303.598114 605.068054,307.449341 
M579.124756,295.088715 
	C578.853333,297.236938 578.581848,299.385193 578.292786,301.672699 
	C581.076111,301.672699 582.998047,301.672699 585.190857,301.672699 
	C584.283875,295.032471 583.407349,288.615326 582.522278,282.135712 
	C586.100159,282.135712 588.387939,282.135712 591.404663,282.135712 
	C590.443054,286.856995 589.554138,291.221161 588.662048,295.601105 
	C591.637878,295.601105 593.566833,295.601105 596.139771,295.601105 
	C595.134399,289.981262 594.203064,284.774933 593.181885,279.066803 
	C584.544373,279.066803 575.795471,279.066803 567.004333,279.066803 
	C567.004333,275.217865 567.004333,271.850037 567.004333,268.277222 
	C571.100403,269.502319 574.835205,270.619354 579.039795,271.876923 
	C579.039795,268.300079 579.039795,265.852661 579.039795,262.355103 
	C573.851135,263.783936 569.155762,265.076904 563.373291,266.669250 
	C563.373291,281.346161 563.373291,296.488983 563.373291,311.617310 
	C565.499512,311.617310 567.738220,311.617310 569.934875,311.617310 
	C570.363708,306.781647 570.324585,306.819489 567.241577,303.629333 
	C566.762207,303.133301 566.670593,302.112335 566.665100,301.332245 
	C566.620972,295.039032 566.640381,288.745422 566.640381,282.265686 
	C571.518188,282.265686 576.038513,282.265686 581.079346,282.265686 
	C580.693909,286.690857 580.340942,290.742615 579.124756,295.088715 
M574.928467,309.927673 
	C574.928467,315.551483 574.928467,321.175293 574.928467,327.221100 
	C570.571289,326.013702 566.789185,324.965668 562.769897,323.851898 
	C562.769897,327.526428 562.769897,329.765228 562.769897,332.887939 
	C567.802856,331.628082 572.278198,330.507843 577.213379,329.272491 
	C577.213379,323.288391 577.261536,317.169800 577.140076,311.054565 
	C577.127686,310.433655 576.094543,309.832977 574.928467,309.927673 
M588.933838,306.443420 
	C589.822083,309.433594 590.710327,312.423737 591.827454,316.184265 
	C587.736938,316.184265 584.853638,316.184265 581.783997,316.184265 
	C583.094849,319.289398 587.670532,319.849182 593.364014,318.182373 
	C594.295105,312.984192 595.192017,307.976532 596.088928,302.968903 
	C595.700256,302.696045 595.311584,302.423187 594.922852,302.150330 
	C593.111145,303.716492 588.820984,299.578705 588.933838,306.443420 
z"/>
<path fill="#A2A2A2" opacity="1.000000" stroke="none" 
	d="
M813.993408,400.000671 
	C814.263367,400.691620 814.547058,401.373688 814.830811,402.055786 
	C814.633667,402.114960 814.436584,402.174133 814.239441,402.233307 
	C814.174744,401.680145 814.110046,401.127014 814.038086,400.270508 
	C814.030701,399.967133 814.007263,399.991821 813.993408,400.000671 
z"/>
<path fill="#DEDEDE" opacity="1.000000" stroke="none" 
	d="
M518.062256,282.009705 
	C517.879822,283.576172 517.891907,284.751099 517.474060,285.745331 
	C516.629822,287.754028 515.552124,289.664642 514.087463,292.576538 
	C519.013123,292.576538 522.276001,292.576538 526.007812,292.576538 
	C526.007812,296.569580 526.007812,300.133820 526.007812,304.316833 
	C529.622742,304.316833 532.784607,304.316833 536.563538,304.316833 
	C533.709412,306.997314 532.517456,307.136658 523.490417,306.250854 
	C523.490417,302.790833 523.490417,299.238892 523.490417,295.351868 
	C519.711243,295.351868 516.600281,295.351868 512.786926,295.351868 
	C512.786926,292.260437 513.822510,287.811981 512.596741,287.062653 
	C508.591522,284.614258 510.695679,281.443146 509.880585,277.644226 
	C512.931580,279.532196 517.950562,274.128998 518.062256,282.009705 
z"/>
<path fill="#CDCDCD" opacity="1.000000" stroke="none" 
	d="
M539.297485,305.371765 
	C539.511353,303.155365 539.725220,301.390778 539.939087,299.626221 
	C540.420715,299.681366 540.902283,299.736511 541.383911,299.791656 
	C541.383911,309.679077 541.383911,319.566528 541.383911,329.466095 
	C537.240784,330.772827 533.115540,332.073914 528.288208,333.596436 
	C528.288208,330.081329 528.288208,327.693024 528.288208,323.824005 
	C531.264343,324.955841 533.893921,326.181915 536.658691,326.838715 
	C537.300903,326.991302 539.140991,325.232056 539.175781,324.305389 
	C539.406860,318.151978 539.296631,311.985687 539.297485,305.371765 
z"/>
<path fill="#D7D7D7" opacity="1.000000" stroke="none" 
	d="
M538.339111,275.873932 
	C538.339172,273.780731 538.339172,272.143921 538.339172,269.952820 
	C534.234314,270.974823 530.530701,271.896912 526.322754,272.944580 
	C526.322754,269.541107 526.322754,267.157257 526.322754,263.586334 
	C531.294983,265.025177 535.735046,266.310028 540.595337,267.716492 
	C540.595337,272.440674 540.595337,277.449432 540.595337,282.458160 
	C540.034607,282.531342 539.473938,282.604492 538.913208,282.677673 
	C538.721863,280.561890 538.530457,278.446136 538.339111,275.873932 
z"/>
<path fill="#E6E6E6" opacity="1.000000" stroke="none" 
	d="
M522.374268,317.770416 
	C523.591431,318.062653 524.349243,318.353546 525.106995,318.644470 
	C525.061829,318.950806 525.016724,319.257141 524.971558,319.563477 
	C521.183960,319.563477 517.396362,319.563477 512.954041,319.563477 
	C512.954041,318.294464 513.121277,316.690002 512.914490,315.135284 
	C512.609619,312.843445 514.309753,310.009674 510.534088,308.492859 
	C509.632904,308.130890 510.166870,304.196533 510.018524,301.502014 
	C512.728455,301.502014 515.094116,301.502014 517.888489,301.502014 
	C517.665466,304.574615 519.381165,307.751923 515.646484,310.484863 
	C514.562500,311.278107 515.480042,314.806549 515.480042,317.769073 
	C517.742432,317.769073 519.828674,317.769073 522.374268,317.770416 
z"/>
<path fill="#DBDBDB" opacity="1.000000" stroke="none" 
	d="
M579.556396,294.941528 
	C580.340942,290.742615 580.693909,286.690857 581.079346,282.265686 
	C576.038513,282.265686 571.518188,282.265686 566.640381,282.265686 
	C566.640381,288.745422 566.620972,295.039032 566.665100,301.332245 
	C566.670593,302.112335 566.762207,303.133301 567.241577,303.629333 
	C570.324585,306.819489 570.363708,306.781647 569.934875,311.617310 
	C567.738220,311.617310 565.499512,311.617310 563.373291,311.617310 
	C563.373291,296.488983 563.373291,281.346161 563.373291,266.669250 
	C569.155762,265.076904 573.851135,263.783936 579.039795,262.355103 
	C579.039795,265.852661 579.039795,268.300079 579.039795,271.876923 
	C574.835205,270.619354 571.100403,269.502319 567.004333,268.277222 
	C567.004333,271.850037 567.004333,275.217865 567.004333,279.066803 
	C575.795471,279.066803 584.544373,279.066803 593.181885,279.066803 
	C594.203064,284.774933 595.134399,289.981262 596.139771,295.601105 
	C593.566833,295.601105 591.637878,295.601105 588.662048,295.601105 
	C589.554138,291.221161 590.443054,286.856995 591.404663,282.135712 
	C588.387939,282.135712 586.100159,282.135712 582.522278,282.135712 
	C583.407349,288.615326 584.283875,295.032471 585.190857,301.672699 
	C582.998047,301.672699 581.076111,301.672699 578.292786,301.672699 
	C578.581848,299.385193 578.853333,297.236938 579.556396,294.941528 
z"/>
<path fill="#E6E6E6" opacity="1.000000" stroke="none" 
	d="
M575.231812,309.575317 
	C576.094543,309.832977 577.127686,310.433655 577.140076,311.054565 
	C577.261536,317.169800 577.213379,323.288391 577.213379,329.272491 
	C572.278198,330.507843 567.802856,331.628082 562.769897,332.887939 
	C562.769897,329.765228 562.769897,327.526428 562.769897,323.851898 
	C566.789185,324.965668 570.571289,326.013702 574.928467,327.221100 
	C574.928467,321.175293 574.928467,315.551483 575.231812,309.575317 
z"/>
<path fill="#DBDBDB" opacity="1.000000" stroke="none" 
	d="
M588.933777,306.008667 
	C588.820984,299.578705 593.111145,303.716492 594.922852,302.150330 
	C595.311584,302.423187 595.700256,302.696045 596.088928,302.968903 
	C595.192017,307.976532 594.295105,312.984192 593.364014,318.182373 
	C587.670532,319.849182 583.094849,319.289398 581.783997,316.184265 
	C584.853638,316.184265 587.736938,316.184265 591.827454,316.184265 
	C590.710327,312.423737 589.822083,309.433594 588.933777,306.008667 
z"/>
</svg>