<?xml version="1.0" standalone="no"?>
<!DOCTYPE svg PUBLIC "-//W3C//DTD SVG 20010904//EN"
 "http://www.w3.org/TR/2001/REC-SVG-20010904/DTD/svg10.dtd">
<svg version="1.0" xmlns="http://www.w3.org/2000/svg"
 width="300.000000pt" height="198.000000pt" viewBox="0 0 300.000000 198.000000"
 preserveAspectRatio="xMidYMid meet">
<metadata>
Created by potrace 1.10, written by Peter Selinger 2001-2011
</metadata>
<g transform="translate(0.000000,198.000000) scale(0.100000,-0.100000)"
fill="#030303" stroke="none">
<path d="M5 1969 c-11 -17 1 -21 15 -4 8 9 8 15 2 15 -6 0 -14 -5 -17 -11z"/>
<path d="M2970 1965 c7 -8 17 -15 22 -15 6 0 5 7 -2 15 -7 8 -17 15 -22 15 -6
0 -5 -7 2 -15z"/>
<path d="M1348 1704 c-136 -36 -258 -106 -348 -201 -101 -106 -147 -187 -175
-308 -19 -81 -29 -203 -15 -189 12 12 32 152 24 166 -5 7 -2 8 6 3 10 -6 12
-4 7 9 -4 10 4 44 19 79 121 289 411 463 710 426 264 -33 496 -224 574 -474
30 -95 38 -272 16 -374 -26 -124 -87 -232 -186 -332 -72 -73 -100 -93 -180
-132 -107 -52 -228 -81 -305 -74 -27 3 -41 3 -30 0 11 -3 24 -9 29 -14 15 -14
97 -11 149 5 26 8 47 12 47 11 0 -2 17 3 38 11 197 81 340 214 417 390 9 22
21 47 26 56 5 10 9 29 9 44 0 14 5 35 11 47 13 23 15 289 3 309 -4 7 -20 46
-34 88 -47 134 -159 275 -286 356 -152 97 -372 138 -526 98z"/>
<path d="M1365 1644 c-142 -29 -300 -129 -386 -244 -77 -101 -129 -252 -129
-371 0 -73 10 -55 21 37 6 42 14 85 19 94 5 10 12 32 15 50 6 35 59 141 90
179 95 118 246 210 375 229 122 18 277 1 370 -41 103 -47 220 -149 266 -233
81 -144 101 -246 85 -413 -10 -95 -16 -116 -56 -197 -25 -51 -68 -117 -96
-149 -27 -31 -47 -60 -44 -65 3 -5 -11 -18 -30 -30 -20 -12 -41 -27 -48 -33
-65 -60 -162 -97 -296 -112 -30 -3 -57 -8 -60 -11 -8 -7 146 3 159 11 5 3 14
4 19 1 11 -7 115 23 107 31 -3 3 23 24 57 46 80 51 151 111 179 150 12 17 17
27 10 23 -19 -11 -14 3 12 37 71 92 116 243 116 387 0 105 -18 181 -69 285
-93 188 -270 314 -486 345 -89 12 -114 12 -200 -6z m605 -1069 c-7 -9 -27 -25
-44 -37 -23 -15 -21 -11 9 16 43 38 55 45 35 21z"/>
<path d="M1895 1540 c10 -11 20 -20 23 -20 3 0 -3 9 -13 20 -10 11 -20 20 -23
20 -3 0 3 -9 13 -20z"/>
<path d="M1945 1500 c10 -11 20 -20 23 -20 3 0 -3 9 -13 20 -10 11 -20 20 -23
20 -3 0 3 -9 13 -20z"/>
<path d="M1394 1441 l-49 -37 -3 -66 -3 -66 43 -34 c56 -45 71 -50 98 -31 16
11 25 12 33 4 20 -20 58 -11 102 24 41 34 43 38 43 93 1 63 -4 72 -65 119 -41
33 -42 33 -73 15 -21 -11 -33 -14 -38 -6 -17 25 -41 21 -88 -15z m85 -5 c8 -9
11 -48 9 -112 l-3 -99 -32 -3 c-24 -2 -34 2 -43 17 -6 12 -17 21 -25 21 -22 0
-38 36 -26 58 7 13 7 22 -1 30 -13 13 15 62 35 62 7 0 18 9 25 20 14 23 44 26
61 6z m103 -3 c7 -10 22 -23 33 -29 16 -9 20 -22 20 -69 0 -47 -4 -60 -20 -69
-11 -6 -26 -19 -33 -28 -18 -24 -59 -23 -72 1 -17 32 -13 177 6 195 20 21 50
20 66 -1z"/>
<path d="M1428 1423 c-7 -10 -22 -23 -33 -29 -16 -9 -20 -22 -20 -64 0 -31 5
-55 11 -57 7 -2 10 6 7 22 -3 15 -1 25 6 25 6 0 11 -9 11 -20 0 -11 4 -20 8
-20 5 0 8 -10 8 -22 -1 -18 5 -23 24 -23 23 0 25 4 28 53 3 47 1 52 -17 52
-12 0 -21 5 -21 11 0 6 9 8 20 4 17 -5 20 -2 20 27 0 52 -27 73 -52 41z m26
-9 c9 -3 15 -16 15 -28 -1 -16 -2 -17 -6 -4 -2 10 -10 15 -19 11 -8 -3 -14 1
-14 11 0 18 2 19 24 10z m-44 -49 c0 -8 5 -15 10 -15 6 0 10 -7 10 -16 0 -11
6 -15 20 -11 17 4 20 0 20 -34 0 -21 -4 -39 -10 -39 -5 0 -12 0 -15 0 -3 0 -5
3 -4 8 1 4 5 6 10 5 5 -2 9 8 9 22 0 18 -5 25 -20 25 -11 0 -20 7 -20 15 0 8
-7 15 -15 15 -8 0 -15 9 -15 20 0 11 5 20 10 20 6 0 10 -7 10 -15z"/>
<path d="M1525 1424 c-21 -22 -20 -180 2 -162 7 6 13 7 14 2 1 -5 5 2 9 16 l8
25 1 -24 c1 -13 -7 -30 -16 -37 -17 -12 -17 -13 -1 -14 9 0 23 8 30 18 7 10
21 21 31 25 28 10 33 38 10 56 -11 9 -22 23 -26 31 -3 9 -6 3 -6 -12 -1 -16
-6 -28 -11 -28 -6 0 -8 11 -6 25 4 19 0 25 -13 25 -14 0 -17 -7 -14 -40 2 -22
-2 -40 -7 -40 -6 0 -10 26 -10 59 0 44 4 60 16 65 23 9 34 7 34 -4 0 -5 -9
-10 -20 -10 -11 0 -20 -4 -20 -10 0 -5 15 -10 33 -10 25 0 37 -6 44 -22 10
-22 11 -22 19 -4 5 14 2 23 -11 30 -10 6 -27 21 -38 34 -24 26 -31 27 -52 6z
m81 -120 c-3 -9 -6 -18 -6 -20 0 -2 -8 -4 -17 -3 -11 0 -13 3 -5 6 6 2 12 11
12 19 0 8 5 14 11 14 6 0 8 -7 5 -16z"/>
<path d="M2077 1315 c15 -30 29 -53 31 -51 4 5 -46 106 -53 106 -3 0 7 -25 22
-55z"/>
<path d="M2131 1174 c0 -11 3 -14 6 -6 3 7 2 16 -1 19 -3 4 -6 -2 -5 -13z"/>
<path d="M2153 1025 c0 -257 -122 -481 -328 -603 -82 -49 -79 -57 4 -10 83 47
209 178 253 263 65 125 99 298 80 410 -7 42 -8 33 -9 -60z"/>
<path d="M1206 1102 c-59 -5 -76 -32 -73 -111 1 -41 7 -66 14 -69 7 -2 27 19
44 46 32 52 70 76 109 70 21 -3 21 -6 21 -212 0 -208 0 -210 -23 -228 -20 -15
-21 -18 -5 -18 10 0 27 5 38 10 18 10 19 24 19 247 l0 236 -52 -7 c-69 -9 -92
-26 -124 -87 -14 -28 -27 -49 -29 -47 -3 3 4 47 21 126 l4 22 230 0 c127 0
230 -3 230 -6 0 -3 -10 -38 -22 -77 l-22 -72 -6 48 c-8 64 -32 87 -103 94
l-57 6 0 -236 c0 -228 1 -237 21 -247 11 -6 30 -10 42 -7 21 3 21 4 2 12 -41
18 -42 25 -41 235 l1 205 44 -1 c48 -1 71 -21 71 -61 0 -34 21 -64 35 -49 6 6
14 19 18 29 7 18 24 22 45 8 10 -6 13 -50 13 -192 -1 -222 0 -224 89 -224 45
0 64 5 77 19 17 18 17 19 0 12 -38 -13 -93 -17 -115 -9 l-24 9 -1 205 -2 204
-34 -3 c-44 -3 -41 -1 40 36 l66 29 -1 -61 -1 -60 43 3 c31 2 42 -1 42 -12 0
-11 -10 -13 -45 -9 l-45 5 0 -161 0 -160 54 -4 c50 -3 53 -2 38 13 -10 9 -23
14 -30 11 -31 -11 -37 15 -34 142 l3 126 25 0 c63 0 68 62 5 68 -29 3 -31 6
-31 42 0 21 -3 45 -6 54 -8 22 -46 20 -89 -4 -48 -27 -58 -25 -51 8 12 55 5
57 -206 57 -106 0 -211 -1 -232 -3z"/>
<path d="M820 980 c0 -5 5 -10 10 -10 6 0 10 5 10 10 0 6 -4 10 -10 10 -5 0
-10 -4 -10 -10z"/>
<path d="M900 689 c24 -46 20 -66 -4 -22 -20 37 -20 20 0 -23 9 -19 21 -34 26
-34 5 0 7 -4 4 -8 -8 -14 114 -136 174 -175 77 -49 129 -77 143 -77 7 1 1 7
-13 15 -14 8 -19 14 -11 15 11 0 9 4 -5 15 -26 20 -14 19 47 -5 28 -12 53 -19
55 -17 4 3 -96 49 -106 49 -3 0 -12 5 -20 12 -21 18 -53 29 -44 15 4 -7 1 -10
-7 -7 -8 3 -13 12 -11 20 1 9 -5 19 -14 22 -14 5 -15 4 -4 -9 7 -8 8 -15 2
-15 -15 0 -152 148 -152 165 0 8 -4 15 -10 15 -5 0 -21 20 -36 45 -32 56 -41
59 -14 4z m115 -157 c27 -30 83 -76 124 -103 41 -27 70 -49 65 -49 -17 0 -127
74 -173 115 -43 39 -111 126 -111 141 0 5 11 -4 23 -21 12 -16 44 -54 72 -83z
m171 -107 c10 -8 14 -15 8 -15 -5 0 -19 7 -30 15 -10 8 -14 15 -8 15 5 0 19
-7 30 -15z"/>
<path d="M1292 557 c16 -16 166 -15 194 1 15 9 -7 11 -94 12 -93 0 -111 -2
-100 -13z"/>
<path d="M1261 365 c15 -8 46 -17 70 -20 38 -5 35 -3 -21 15 -77 23 -83 24
-49 5z"/>
<path d="M1265 340 c3 -5 16 -10 28 -9 21 0 21 1 2 9 -28 12 -37 12 -30 0z"/>
<path d="M1388 333 c7 -3 16 -2 19 1 4 3 -2 6 -13 5 -11 0 -14 -3 -6 -6z"/>
<path d="M2975 20 c-10 -11 -13 -20 -8 -20 13 0 38 29 31 35 -3 3 -13 -4 -23
-15z"/>
<path d="M0 21 c0 -5 7 -12 16 -15 14 -5 15 -4 4 9 -14 17 -20 19 -20 6z"/>
</g>
</svg>
